<?xml version="1.0" encoding="UTF-8"?>
<svg id="Layer_1" data-name="Layer 1" xmlns="http://www.w3.org/2000/svg" viewBox="0 0 1024 1024">
  <defs>
    <style>
      .cls-1 {
        fill: #fe0072;
      }

      .cls-2 {
        fill: #292826;
      }

      .cls-3 {
        fill: #fefefe;
      }
    </style>
  </defs>
  <path class="cls-2" d="m479,1024H0V0h1024v1024H479m478.31-455.84c-37.46-46.15-74.92-92.3-112.79-138.95-2.43,2.75-4.46,4.89-6.32,7.17-46.46,57.15-92.85,114.35-139.43,171.4-2.87,3.52-2.44,5.51.17,8.71,42.51,52.2,84.89,104.49,127.33,156.75,5.85,7.21,11.82,14.32,18.09,21.9,49.82-61.33,99.26-122.17,148.74-183.08-12-14.72-23.68-29.04-35.81-43.91m-820.05-87.42c-35.48,43.7-70.95,87.39-106.68,131.4,49.53,60.97,98.96,121.81,148.75,183.08,49.82-61.32,99.25-122.16,148.76-183.1-49.73-61.21-99.04-121.9-148.74-183.08-14.32,17.6-27.97,34.38-42.08,51.7m611.59-166.09c-23.23-28.61-46.46-57.22-70.09-86.31-8.03,9.95-15.41,19.17-22.86,28.33-41.01,50.39-82,100.79-123.11,151.1-2.47,3.02-2.07,4.98.24,7.7,7.75,9.16,15.34,18.44,22.9,27.75,39.79,49.02,79.55,98.06,119.34,147.09,1.09,1.34,2.36,2.54,3.88,4.16,5.95-7.45,11.39-14.37,16.94-21.2,42.13-51.84,84.33-103.63,126.39-155.52,6-7.4,6.03-5.02-.06-12.57-24.29-30.06-48.73-60-73.57-90.53m-188.16,176.15c-16.61-20.34-33.22-40.68-50.26-61.54-4.51,5.31-8.66,10.03-12.62,14.9-44.45,54.68-88.85,109.4-133.36,164.04-2.32,2.84-2.47,4.7-.09,7.62,44.62,54.76,89.13,109.61,133.69,164.42,3.94,4.85,8.05,9.57,12.29,14.6,1.27-1.36,2.1-2.15,2.81-3.03,7.98-9.83,15.93-19.68,23.91-29.51,39.17-48.24,78.29-96.52,117.61-144.63,3.45-4.22,3.64-6.74.06-11.1-31.37-38.27-62.45-76.76-94.04-115.75m-365.47-80c1.32,2.21,2.38,4.63,3.99,6.61,39.02,48.13,78.09,96.23,117.18,144.3,8.8,10.82,17.71,21.56,26.85,32.66,1.23-1.3,2.17-2.17,2.97-3.16,47.24-58.2,94.43-116.44,141.76-174.57,3.01-3.7,3.46-6.11.21-10.1-47.16-57.83-94.14-115.81-141.18-173.75-1.09-1.34-2.33-2.57-3.82-4.2-49.5,60.88-98.56,121.22-147.94,182.2Z"/>
  <path class="cls-3" d="m957.54,568.44c11.9,14.6,23.58,28.92,35.58,43.64-49.48,60.91-98.92,121.75-148.74,183.08-6.27-7.59-12.24-14.7-18.09-21.9-42.44-52.26-84.82-104.55-127.33-156.75-2.61-3.2-3.05-5.19-.17-8.71,46.58-57.05,92.97-114.25,139.43-171.4,1.86-2.28,3.89-4.43,6.32-7.17,37.86,46.65,75.32,92.8,113.01,139.22Z"/>
  <path class="cls-3" d="m137.5,480.47c13.88-17.05,27.53-33.83,41.85-51.43,49.71,61.18,99.01,121.87,148.74,183.08-49.51,60.94-98.94,121.78-148.76,183.1-49.78-61.27-99.21-122.12-148.75-183.08,35.73-44,71.2-87.7,106.91-131.67Z"/>
  <path class="cls-1" d="m749.09,314.92c24.61,30.26,49.05,60.2,73.34,90.26,6.09,7.54,6.06,5.16.06,12.57-42.07,51.89-84.26,103.68-126.39,155.52-5.55,6.83-10.99,13.75-16.94,21.2-1.52-1.62-2.79-2.82-3.88-4.16-39.79-49.02-79.55-98.07-119.34-147.09-7.56-9.31-15.16-18.6-22.9-27.75-2.3-2.72-2.7-4.68-.24-7.7,41.11-50.31,82.1-100.71,123.11-151.1,7.45-9.16,14.84-18.38,22.86-28.33,23.63,29.09,46.86,57.7,70.32,86.58Z"/>
  <path class="cls-1" d="m560.92,491.07c31.38,38.71,62.46,77.21,93.83,115.47,3.58,4.36,3.39,6.88-.06,11.1-39.32,48.11-78.44,96.39-117.61,144.63-7.98,9.83-15.93,19.68-23.91,29.51-.71.88-1.54,1.67-2.81,3.03-4.24-5.02-8.35-9.74-12.29-14.6-44.56-54.81-89.07-109.66-133.69-164.42-2.38-2.92-2.23-4.77.09-7.62,44.51-54.64,88.91-109.36,133.36-164.04,3.96-4.87,8.11-9.59,12.62-14.9,17.04,20.87,33.65,41.2,50.47,61.82Z"/>
  <path class="cls-1" d="m195.4,410.48c49.22-60.66,98.28-121,147.78-181.88,1.49,1.63,2.73,2.86,3.82,4.2,47.04,57.93,94.01,115.92,141.18,173.75,3.25,3.99,2.8,6.4-.21,10.1-47.33,58.13-94.52,116.36-141.76,174.57-.8.99-1.74,1.86-2.97,3.16-9.13-11.1-18.05-21.83-26.85-32.66-39.09-48.08-78.16-96.17-117.18-144.3-1.6-1.98-2.67-4.4-3.82-6.93Z"/>
</svg>